<?xml version="1.0" encoding="utf-8"?>
<!-- Generator: Adobe Illustrator 15.0.0, SVG Export Plug-In . SVG Version: 6.00 Build 0)  -->
<!DOCTYPE svg PUBLIC "-//W3C//DTD SVG 1.1//EN" "http://www.w3.org/Graphics/SVG/1.1/DTD/svg11.dtd" [
	<!ENTITY ns_extend "http://ns.adobe.com/Extensibility/1.0/">
	<!ENTITY ns_ai "http://ns.adobe.com/AdobeIllustrator/10.0/">
	<!ENTITY ns_graphs "http://ns.adobe.com/Graphs/1.0/">
	<!ENTITY ns_vars "http://ns.adobe.com/Variables/1.0/">
	<!ENTITY ns_imrep "http://ns.adobe.com/ImageReplacement/1.0/">
	<!ENTITY ns_sfw "http://ns.adobe.com/SaveForWeb/1.0/">
	<!ENTITY ns_custom "http://ns.adobe.com/GenericCustomNamespace/1.0/">
	<!ENTITY ns_adobe_xpath "http://ns.adobe.com/XPath/1.0/">
]>
<svg version="1.1" id="Layer_1" xmlns:x="&ns_extend;" xmlns:i="&ns_ai;" xmlns:graph="&ns_graphs;"
	 xmlns="http://www.w3.org/2000/svg" xmlns:xlink="http://www.w3.org/1999/xlink" x="0px" y="0px" width="408.351px"
	 height="39.692px" viewBox="0 0 408.351 39.692" enable-background="new 0 0 408.351 39.692" xml:space="preserve">
<metadata>
	<sfw  xmlns="&ns_sfw;">
		<slices></slices>
		<sliceSourceBounds  y="193.26" x="586.649" width="408.35" height="39.692" bottomLeftOrigin="true"></sliceSourceBounds>
	</sfw>
</metadata>
<path fill="#95BF23" d="M39.946,10.915L38.9,16.939H23.563c-5.678,0-9.71,2.467-10.623,6.661l-0.844,5
	c-0.633,3.896,2.803,4.964,7.634,4.964h16.57l-0.84,6.028H14.398c-9.788,0-15.591-1.797-14.191-10.693l1.263-7.497
	c1.631-7.998,8.425-10.487,21.645-10.487H39.946z"/>
<path fill="#95BF23" d="M68.237,28.147l-1.152,5.693H53.582c-2.246,0-3.959-0.522-3.741-2.007c0.019-0.125,0.287-1.454,0.313-1.583
	c0.31-1.378,2.177-2.104,4.427-2.104H68.237z M44.085,10.874l-1.152,6.102h20.338c3.255,0,7.059,1.429,6.285,4.172l-0.254,1.521
	H50.485c-6.374,0-9.803,0.898-10.815,5.803l-0.751,4.356c-0.873,5.726,3.579,6.769,9.485,6.769h28.888l3.002-16.383
	c0.67-4.014,0.766-7.037-2.368-9.607c-3.413-2.799-13.201-2.732-13.201-2.732H44.085z"/>
<path fill="#95BF23" d="M337.01,28.147l-1.152,5.693h-13.503c-2.25,0-3.962-0.522-3.745-2.007c0.026-0.125,0.287-1.454,0.313-1.583
	c0.306-1.378,2.176-2.104,4.43-2.104H337.01z M312.857,10.874l-1.152,6.102h20.338c3.259,0,7.059,1.429,6.285,4.172l-0.254,1.521
	h-18.82c-6.374,0-9.803,0.898-10.812,5.803l-0.751,4.356c-0.876,5.726,3.579,6.769,9.482,6.769h29.083l2.75-16.383
	c0.67-4.014,0.821-7.037-2.309-9.607c-3.417-2.799-13.201-2.732-13.201-2.732H312.857z"/>
<path fill="#95BF23" d="M108.452,10.874c6.278,0,11.65-0.125,14.719,3.223c1.774,1.918,2.22,3.509,1.785,5.921l-3.542,19.642H109.76
	l3.432-19.038c0.372-1.687-1.562-3.454-5.163-3.454H96.694l-4.072,22.43h-11.57l5.229-28.723H108.452z"/>
<path fill="#95BF23" d="M152.552,10.874c6.274,0,11.654-0.125,14.718,3.223c1.771,1.918,2.221,3.509,1.782,5.921l-3.542,19.642
	h-11.651l3.433-19.038c0.368-1.687-1.558-3.454-5.167-3.454h-11.326l-4.073,22.43h-11.577l5.232-28.723H152.552z"/>
<path fill="#95BF23" d="M245.136,10.874c6.279,0,11.655-0.125,14.723,3.223c1.771,1.918,2.217,3.509,1.785,5.921l-3.546,19.642
	h-11.658l3.436-19.038c0.372-1.687-1.558-3.454-5.162-3.454h-11.331l-4.076,22.43h-11.569l5.232-28.723H245.136z"/>
<path fill="#95BF23" d="M195.903,16.917c6.916,0,10.812,0.597,9.986,5.199l-1.159,6.569c-0.866,4.489-5.321,4.794-12.078,4.794
	c-5.608,0.052-11.438-0.637-10.646-4.993l1.34-6.771C184.334,17.314,189.504,16.917,195.903,16.917 M172.701,20.717l-1.867,9.792
	c-1.123,7.887,8.894,9.286,20.901,9.128c12.17-0.202,21.817-0.239,23.861-9.128l1.853-9.191c1.414-9.331-6.945-10.774-20.261-10.774
	C185.932,10.543,174.616,11.051,172.701,20.717"/>
<path fill="#95BF23" d="M293.149,33.348h-9.945c-5.708,0-8.871-1.289-8.046-6.345l0.817-4.136c0.957-3.969,4.868-6.031,10.369-6.031
	h9.861L293.149,33.348z M309.588,0.218h-10.381l-1.712,10.656h-13.669c-9.931,0-17.063,2.593-18.566,9.998l-1.62,9.46
	c-1.082,7.265,4.739,9.265,14.648,9.265h24.87L309.588,0.218z"/>
<polygon fill="#95BF23" points="356.607,0 368.185,0 361.527,39.692 349.957,39.692 "/>
<path fill="#95BF23" d="M408.104,21.004c0,0,2.688-10.325-9.718-10.325h-11.407c-8.738,0-17.233,2.133-18.6,10.524l-1.407,7.597
	c-1.612,9.327,5.465,10.793,14.324,10.793h23.276l1.023-5.708H383.37c-3.844,0-5.151-2.839-4.64-5.199h28.019L408.104,21.004z
	 M386.029,16.892h6.315c7.516,0,4.724,5.703,4.724,5.703h-17.417C380.178,19.8,382.012,16.892,386.029,16.892"/>
<path fill="#95BF23" d="M312.699,4.905c0.251-1.51,1.572-2.644,3.03-2.644c1.44,0,2.387,1.134,2.14,2.644
	c-0.254,1.531-1.579,2.658-3.02,2.658C313.396,7.563,312.445,6.437,312.699,4.905 M314.765,8.094c1.734,0,3.437-1.348,3.742-3.188
	c0.298-1.826-0.958-3.171-2.692-3.171c-1.753,0-3.458,1.345-3.756,3.171C311.757,6.746,313.016,8.094,314.765,8.094 M314.577,5.155
	h0.637l0.707,1.591h0.623l-0.777-1.616c0.553-0.066,1.013-0.35,1.119-1.009c0.118-0.726-0.254-1.042-1.126-1.042h-1.396
	l-0.608,3.667h0.557L314.577,5.155z M314.654,4.685l0.185-1.139h0.762c0.384,0,0.785,0.089,0.707,0.542
	c-0.092,0.563-0.519,0.597-0.986,0.597H314.654z"/>
</svg>
