<?xml version="1.0" encoding="UTF-8" standalone="no"?>
<svg
   class="logo-gazelle"
   version="1.1"
   id="Layer_1"
   x="0px"
   y="0px"
   viewBox="0 0 165.11425 30.354384"
   xml:space="preserve"
   width="273.84802"
   height="50.274448"
   sodipodi:docname="Gazelle wordmark.svg"
   inkscape:version="1.4 (86a8ad7, 2024-10-11)"
   xmlns:inkscape="http://www.inkscape.org/namespaces/inkscape"
   xmlns:sodipodi="http://sodipodi.sourceforge.net/DTD/sodipodi-0.dtd"
   xmlns="http://www.w3.org/2000/svg"
   xmlns:svg="http://www.w3.org/2000/svg"><sodipodi:namedview
   id="namedview1"
   pagecolor="#ffffff"
   bordercolor="#000000"
   borderopacity="0.25"
   inkscape:showpageshadow="2"
   inkscape:pageopacity="0.0"
   inkscape:pagecheckerboard="0"
   inkscape:deskcolor="#d1d1d1"
   inkscape:zoom="2.6073529"
   inkscape:cx="142.09814"
   inkscape:cy="31.641286"
   inkscape:window-width="1920"
   inkscape:window-height="1001"
   inkscape:window-x="-9"
   inkscape:window-y="-9"
   inkscape:window-maximized="1"
   inkscape:current-layer="g8" />
                            <defs
   id="defs8" />
                        <style
   type="text/css"
   id="style1">
                            .st0 {
                                fill: #033A7E;
                            }
                        </style>
                        <g
   id="g8"
   transform="translate(-20.141509,-20.494263)">
                            <polygon
   class="st0"
   points="173.93123,37.328468 185.15395,37.328468 185.15395,33.562454 173.93123,33.562454 173.93123,25.766733 185.34221,25.766733 185.34221,22.000723 169.90152,22.000723 169.90152,50.396687 185.34221,50.396687 185.34221,46.630676 173.93123,46.630676 "
   id="polygon1"
   fill="#033A7E" />
                            <polygon
   class="st0"
   points="153.91365,22.000723 149.88408,22.000723 149.88408,50.396687 162.8392,50.396687 162.8392,46.630676 153.91365,46.630676 "
   id="polygon2"
   fill="#033A7E" />
                            <polygon
   class="st0"
   points="133.99155,22.000723 129.96184,22.000723 129.96184,50.396687 142.9171,50.396687 142.9171,46.630676 133.99155,46.630676 "
   id="polygon3"
   fill="#033A7E" />
                            <polygon
   class="st0"
   points="111.61359,37.328468 122.83646,37.328468 122.83646,33.562454 111.61359,33.562454 111.61359,25.766733 123.02472,25.766733 123.02472,22.000723 107.58401,22.000723 107.58401,50.396687 123.02472,50.396687 123.02472,46.630676 111.61359,46.630676 "
   id="polygon4"
   fill="#033A7E" />
                            <polygon
   class="st0"
   points="101.17876,22.000723 81.331696,22.000723 81.331696,25.766733 94.47522,25.766733 79.71225,50.396687 100.61385,50.396687 100.61385,46.630676 86.453583,46.630676 "
   id="polygon5"
   fill="#033A7E" />
                            <path
   class="st0"
   d="M 63.330147,20.494263 49.847588,50.396664 h 4.217823 l 3.050804,-6.778816 h 12.390262 l 3.050331,6.778816 h 4.25589 z M 58.772976,39.8517 63.254471,29.796419 h 0.07568 L 67.849236,39.8517 Z"
   id="path5"
   fill="#033A7E" />
                            <path
   class="st0"
   d="M 48.265396,36.010376 H 36.590702 v 3.502445 h 7.60733 c -0.790828,4.36858 -4.632144,7.532025 -9.565773,7.532025 -5.874931,0 -10.356599,-4.707448 -10.356599,-10.846211 0,-6.138628 4.481668,-10.846209 10.318948,-10.846209 3.879101,0 7.042546,1.92066 8.963204,4.933493 l 3.163444,-2.108915 C 44.160381,24.147287 39.829453,21.548761 34.594608,21.548761 26.346926,21.548761 20,28.064043 20,36.198635 c 0,8.134728 6.497667,14.650013 14.783001,14.650013 7.682632,0 13.557697,-5.988022 13.557697,-13.407227 0,-0.489471 0.03765,-0.86613 -0.0753,-1.431045"
   id="path6"
   fill="#033A7E" />
                            
                        </g>
                        </svg>
