<svg width="191" height="29" viewBox="0 0 191 29" fill="none" xmlns="http://www.w3.org/2000/svg">
<path d="M16.0735 12.9718L17.0549 22.5141L29 0L6.56471 11.8513L16.0735 12.9718Z" fill="#D8232F"/>
<path d="M4.43291 11.7494L13.2987 6.99529L8.89967 6.55384L0 11.274L4.43291 11.7494Z" fill="#D8232F"/>
<path d="M17.7317 29L22.4353 20.0691L21.9954 15.6546L17.2579 24.5855L17.7317 29Z" fill="#D8232F"/>
<g clip-path="url(#clip0_4_7)">
<path d="M52.8637 24.9999V16.8528H45.1024V24.9999H39V4H45.1024V11.8708H52.8637V4H58.9661V24.9999H52.8637Z" fill="#0C0F14"/>
<path d="M69.9153 4H64.1187V24.9999H69.9153V4Z" fill="#0C0F14"/>
<path d="M80.6948 13.8219V24.9999H75.0678V4H80.2745L87.7441 16.3422L95.0252 4.00633H100.186V24.9894H94.6112V13.4022L87.682 24.9894" fill="#0C0F14"/>
<path d="M111.78 4H105.339V24.9999H111.78V4Z" fill="#0C0F14"/>
<path d="M165.714 24.9999L164.359 21.8984L154.491 21.8583L153.12 24.9999H147.203L156.225 4H162.617L171.678 24.9999H165.714ZM156.62 16.8979H162.229L159.417 10.3888L156.62 16.8979Z" fill="#0C0F14"/>
<path d="M176.725 24.9999V17.0854L168.458 4H174.509L179.784 12.3852L185.102 4H191L182.753 17.0854V24.9999H176.725Z" fill="#0C0F14"/>
<path d="M136.318 24.9999H142.242L148.492 4H142.648L138.385 18.1913L132.091 4L125.749 18.2292L121.485 4H115.644L121.905 24.9999H127.844L132.089 15.4821L136.318 24.9999Z" fill="#0C0F14"/>
</g>
<defs>
<clipPath id="clip0_4_7">
<rect width="152" height="21" fill="white" transform="translate(39 4)"/>
</clipPath>
</defs>
</svg>
