<?xml version="1.0" encoding="UTF-8" standalone="no"?>
<!-- Created with Inkscape (http://www.inkscape.org/) -->

<svg
   width="192.76602mm"
   height="56.28828mm"
   viewBox="0 0 192.76602 56.28828"
   version="1.1"
   id="svg569"
   xml:space="preserve"
   inkscape:version="1.2.2 (b0a84865, 2022-12-01)"
   sodipodi:docname="lectriclogo.svg"
   xmlns:inkscape="http://www.inkscape.org/namespaces/inkscape"
   xmlns:sodipodi="http://sodipodi.sourceforge.net/DTD/sodipodi-0.dtd"
   xmlns:xlink="http://www.w3.org/1999/xlink"
   xmlns="http://www.w3.org/2000/svg"
   xmlns:svg="http://www.w3.org/2000/svg"><sodipodi:namedview
     id="namedview571"
     pagecolor="#ffffff"
     bordercolor="#000000"
     borderopacity="0.25"
     inkscape:showpageshadow="2"
     inkscape:pageopacity="0.0"
     inkscape:pagecheckerboard="0"
     inkscape:deskcolor="#d1d1d1"
     inkscape:document-units="mm"
     showgrid="false"
     inkscape:zoom="0.91691884"
     inkscape:cx="330.99985"
     inkscape:cy="128.69187"
     inkscape:window-width="1440"
     inkscape:window-height="772"
     inkscape:window-x="0"
     inkscape:window-y="25"
     inkscape:window-maximized="1"
     inkscape:current-layer="g712" /><defs
     id="defs566"><clipPath
       clipPathUnits="userSpaceOnUse"
       id="clipPath714"><use
         x="0"
         y="0"
         xlink:href="#g710"
         id="use716" /></clipPath></defs><g
     inkscape:label="Layer 1"
     inkscape:groupmode="layer"
     id="layer1"
     transform="translate(-7.0290283,-112.64894)"><g
       id="g712"
       clip-path="url(#clipPath714)"
       inkscape:label="g712"><g
         inkscape:label="Clip"
         id="g710"><path
           id="path595"
           style="display:inline;fill:#00a3e0;stroke-width:0.202114;fill-opacity:1"
           d="m 35.422127,112.64894 -10.255704,10.2557 -10.255188,10.25571 3.534151,3.53828 3.534151,3.53829 6.721553,-6.71949 6.722071,-6.71948 1.969389,1.96938 1.969388,1.96939 -6.719486,6.72207 -6.720003,6.72207 3.235461,3.2303 3.234945,3.23029 6.621301,-6.61923 6.621301,-6.61924 1.663465,1.67225 1.663464,1.67173 -1.664498,1.6645 -1.664498,1.6645 3.634921,3.63854 3.634403,3.63854 5.206401,-5.2033 5.205883,-5.2033 -6.112805,-6.11539 -6.112805,-6.11539 h -1.466577 -1.466577 v -1.66863 -1.66864 l -6.367053,-6.36498 z m 95.600883,15.25436 v 2.02314 2.02365 h 2.93109 2.93057 v 5.46323 5.46323 l 2.47582,-0.0568 2.47581,-0.0568 0.0538,-5.4007 0.0537,-5.40122 2.87683,-0.0558 2.87682,-0.0563 v -1.91978 -1.9203 l -8.33695,-0.0527 z m -57.400114,0.004 v 7.48068 7.4812 l 7.225399,-0.0532 7.225399,-0.0532 0.05788,-2.07171 0.05736,-2.0717 H 83.432635 78.67582 v -5.35575 -5.35626 h -2.526461 z m 98.833764,0 v 7.47861 7.4781 h 2.42517 2.42569 v -7.4781 -7.47861 h -2.42569 z m -52.9978,0.005 c -5.32142,0.004 -5.9998,0.0422 -6.72672,0.37775 -0.97843,0.45157 -1.59447,1.09106 -2.01177,2.0898 -0.39353,0.94179 -0.42763,8.34328 -0.0434,9.40253 0.30228,0.83329 1.21722,1.80919 2.0314,2.16627 0.4845,0.21251 2.02931,0.27936 6.69313,0.28836 6.85327,0.0136 7.19714,-0.0487 8.31008,-1.50741 0.51434,-0.67409 0.59133,-0.96193 0.65423,-2.44739 l 0.0713,-1.68362 h -2.24379 -2.24431 v 0.70745 c 0,0.43791 -0.15388,0.86133 -0.40411,1.11156 -0.37457,0.37453 -0.67357,0.40411 -4.07675,0.40411 -3.13382,0 -3.72675,-0.0489 -4.04213,-0.33435 -0.32521,-0.29433 -0.37,-0.68098 -0.37,-3.22202 0,-3.73101 -0.26,-3.51762 4.27622,-3.51762 1.85779,0 3.61299,0.0896 3.90054,0.19896 0.34951,0.13288 0.56342,0.40117 0.64492,0.80873 l 0.12196,0.60927 h 2.19831 2.1978 v -1.32137 c 0,-1.98898 -0.70055,-3.1668 -2.2748,-3.82457 -0.61301,-0.25614 -1.78609,-0.31044 -6.66212,-0.30644 z m 42.83976,0.0238 c -1.04272,-7e-4 -2.38284,0.007 -4.12585,0.0196 l -7.44347,0.0532 -0.0532,7.17373 c -0.0292,3.94567 -0.009,7.28844 0.0444,7.42797 0.0706,0.1841 0.76471,0.25373 2.52904,0.25373 h 2.43138 v -1.95027 -1.95027 l 3.72432,0.11007 c 2.04839,0.0606 3.82208,0.17073 3.94136,0.24443 0.12667,0.0783 0.21704,0.84295 0.21704,1.83968 v 1.70636 h 2.543 2.54248 l -0.0667,-2.52233 c -0.064,-2.40802 -0.091,-2.5467 -0.59531,-3.05046 l -0.52813,-0.52761 0.45682,-0.45682 c 0.37427,-0.37427 0.48397,-0.77793 0.60461,-2.22623 0.28257,-3.39215 -0.28708,-5.02046 -2.0252,-5.78931 -0.61757,-0.27318 -1.06849,-0.35343 -4.19664,-0.35553 z m 34.71468,0.36122 -6.48281,0.0584 -6.48281,0.0584 -0.73174,0.50178 c -0.40257,0.276 -0.94182,0.86705 -1.19786,1.31361 -0.44633,0.77848 -0.46509,0.99141 -0.46509,5.15782 0,4.12677 0.023,4.38829 0.45734,5.20124 0.49304,0.92281 1.03443,1.35971 2.22209,1.79265 0.5858,0.2135 2.07657,0.26511 6.61768,0.22841 6.65819,-0.0539 6.92664,-0.11153 8.06359,-1.72082 0.48566,-0.68741 0.60176,-1.0885 0.68316,-2.35645 l 0.0982,-1.52859 h -2.35076 -2.35076 v 0.6196 c 0,0.34079 -0.0942,0.79578 -0.20929,1.0108 -0.19582,0.36583 -0.46053,0.39067 -4.12895,0.39067 -3.29385,0 -3.97057,-0.0504 -4.23747,-0.31729 -0.47878,-0.47879 -0.46457,-5.65253 0.0171,-6.18464 0.30111,-0.33271 0.70786,-0.36949 4.07675,-0.36949 3.19871,0 3.79649,0.0484 4.11241,0.33435 0.20328,0.18397 0.36949,0.50236 0.36949,0.70745 0,0.34111 0.20028,0.37259 2.34766,0.37259 h 2.34818 l -0.0858,-1.26297 c -0.11495,-1.70309 -0.62885,-2.69802 -1.7663,-3.41995 z m -90.20122,0.97048 c -0.002,-2.3e-4 -0.005,6e-5 -0.0103,5.2e-4 -0.009,8.4e-4 -0.033,0.006 -0.0548,0.0103 0.007,0.002 0.0139,0.003 0.0207,0.005 0.01,0.003 0.0589,-0.0139 0.0444,-0.0155 z m 48.86886,2.47995 h 3.55068 c 3.44862,0 4.19787,0.11255 4.58164,0.6873 0.26042,0.39001 0.16541,1.63268 -0.1602,2.09755 -0.3063,0.43731 -0.41606,0.44906 -4.14342,0.44906 h -3.8287 v -1.61695 z m -141.583609,2.4257 c -0.111988,0 -1.748184,1.54625 -3.635954,3.43648 l -3.4323487,3.437 13.9438517,13.94488 c 7.669138,7.66977 14.03549,13.94541 14.147457,13.94541 0.111967,0 3.977366,-3.77484 8.589656,-8.38812 l 8.386052,-8.38761 -3.586344,-3.58634 -3.586345,-3.58634 -4.952669,4.94956 -4.952669,4.94957 -10.358541,-10.3575 C 18.962224,138.83326 14.209319,134.17321 14.097331,134.17321 Z m 85.09248,2.94555 c -0.01824,0.003 -0.03652,0.006 -0.05478,0.009 2.93e-4,0.009 2.04e-4,0.0172 5.17e-4,0.0264 l 0.03514,-5.2e-4 c 0.0059,-0.0118 0.01181,-0.0237 0.01912,-0.0346 z m 6.649719,5.25653 c -5.5e-4,0.002 -10e-4,0.004 -0.002,0.006 -0.002,0.0104 -0.004,0.0205 -0.006,0.031 -0.001,0.007 0.004,-0.0152 0.005,-0.0222 9.8e-4,-0.005 0.001,-0.01 0.003,-0.0145 z m 90.29527,2.71301 c -0.94933,0.0136 -1.89263,0.1148 -2.24224,0.29559 -0.32129,0.16614 -0.67309,0.58002 -0.7984,0.93948 -0.28476,0.8164 -0.28807,2.56016 -0.008,3.36568 0.24951,0.71574 1.21233,1.25843 2.23965,1.26143 1.49202,0.005 2.19265,0.22998 2.32234,0.74672 0.0681,0.2713 0.0232,0.71421 -0.0997,0.98392 -0.18768,0.41188 -0.36715,0.49041 -1.12087,0.49041 -1.25975,0 -1.53634,-0.14997 -1.53634,-0.83044 0,-0.56692 -0.031,-0.58446 -1.01079,-0.58446 h -1.01079 l 10e-4,0.85886 c 9.1e-4,1.02909 0.60826,2.12224 1.25626,2.26084 0.25356,0.0542 0.64274,0.14238 0.86506,0.19638 0.65678,0.15939 3.00347,-0.032 3.57291,-0.29146 0.80516,-0.36686 1.0759,-1.08437 1.0759,-2.84996 0,-1.43318 -0.0491,-1.62943 -0.52606,-2.10633 -0.43503,-0.43496 -0.83726,-0.56718 -2.32441,-0.76274 l -1.79834,-0.23616 -0.0661,-0.69867 c -0.0775,-0.81522 0.33155,-1.22163 1.2299,-1.22163 0.85768,0 1.3627,0.34376 1.3627,0.92759 0,0.48145 0.0526,0.50624 0.96015,0.44804 0.83596,-0.0536 0.96865,-0.12386 1.02785,-0.5426 0.10844,-0.76675 -0.52014,-2.15902 -1.09296,-2.42001 -0.37401,-0.17039 -1.3296,-0.2441 -2.27893,-0.23048 z m -25.49715,0.39171 v 4.95732 4.95732 h 2.93057 2.93057 v -1.01028 -1.01079 h -1.91978 -1.9203 v -1.01079 -1.01027 h 1.71773 1.71824 v -0.90951 -0.9095 h -1.71824 -1.71773 v -1.01079 -1.01028 h 1.93115 1.93115 l -0.0615,-0.96015 -0.0615,-0.96014 -2.88045,-0.0558 z m -22.23275,0.0114 -1.01028,5.1e-4 -1.01079,5.2e-4 v 4.95215 4.95164 h 1.01079 1.01028 v -2.03605 c 0,-2.61073 0.21938,-2.6052 1.89652,0.0553 l 1.2361,1.96216 1.28674,0.009 1.28623,0.009 -0.36122,-0.55604 c -0.19887,-0.3057 -0.94928,-1.43948 -1.66708,-2.51975 l -1.30483,-1.96422 1.44126,-2.29495 c 0.79269,-1.26229 1.44125,-2.35669 1.44125,-2.43189 0,-0.0752 -0.52302,-0.13477 -1.1622,-0.13177 l -1.1622,0.005 -1.12758,1.86449 c -0.6202,1.02549 -1.2793,1.8937 -1.46503,1.9296 -0.29658,0.0574 -0.33796,-0.16999 -0.33796,-1.86914 z m -46.284,0.20309 v 4.96713 l 5.2e-4,4.96663 2.92591,-0.0656 c 2.67026,-0.0597 2.96297,-0.10319 3.35639,-0.49713 0.90079,-0.90232 0.89861,-3.6172 -0.004,-4.34805 -0.32719,-0.26499 -0.35277,-0.35571 -0.12298,-0.44391 0.87061,-0.33422 0.8717,-3.22837 10e-4,-4.09897 -0.45958,-0.45961 -0.60014,-0.48007 -3.31866,-0.48007 z m 24.25382,0 v 4.95215 4.95163 h 1.01027 1.01079 v -4.95163 -4.95215 h -1.01079 z m -49.821253,2.02158 c -2.424523,0 -2.994971,0.81919 -2.896981,4.1615 0.0642,2.18983 0.09337,2.32372 0.61805,2.84789 0.388421,0.38805 0.834596,0.58334 1.51567,0.66404 1.350105,0.16 2.641466,-0.0638 3.118156,-0.54053 0.22237,-0.22237 0.454934,-0.78135 0.516764,-1.24231 l 0.112138,-0.83819 h -0.903821 c -0.76779,0 -0.938177,0.0761 -1.133781,0.5054 -0.181487,0.39832 -0.379369,0.50539 -0.934826,0.50539 -0.747228,0 -1.122929,-0.4014 -1.122929,-1.19941 0,-0.39412 0.113231,-0.41754 2.021065,-0.41754 h 2.021065 v -1.21905 c 0,-2.33324 -0.811817,-3.22719 -2.93057,-3.22719 z m 27.588493,0 h 1.30018 c 1.42867,0 1.68208,0.23204 1.4149,1.29656 -0.12391,0.49367 -0.20245,0.52245 -1.42317,0.52245 h -1.29191 v -0.90951 z m -27.588493,1.80351 c 0.451598,0 0.903341,0.11141 0.989087,0.33486 0.06747,0.17584 0.122473,0.40332 0.122473,0.50539 0,0.10208 -0.500168,0.18552 -1.11156,0.18552 -1.10621,0 -1.222943,-0.0815 -0.989087,-0.69091 0.08575,-0.22345 0.537487,-0.33486 0.989087,-0.33486 z m 27.588493,1.83451 h 1.09503 c 1.57993,0 1.73478,0.099 1.73478,1.11156 0,0.60347 -0.0972,0.90307 -0.31988,0.98857 -0.17583,0.0675 -0.81259,0.12299 -1.4149,0.12299 h -1.09503 v -1.11156 z" /><rect
           style="fill:#00a3e0;stroke-width:0.264583;fill-opacity:1"
           id="rect698"
           width="16.480986"
           height="3.9301977"
           x="90.456001"
           y="128.01126" /><rect
           style="fill:#00a3e0;stroke-width:0.264583;fill-opacity:1"
           id="rect698-2"
           width="16.480986"
           height="3.9301977"
           x="90.455536"
           y="133.29384" /><rect
           style="fill:#00a3e0;stroke-width:0.264583;fill-opacity:1"
           id="rect698-2-4"
           width="16.480986"
           height="3.9301977"
           x="90.456001"
           y="138.80138" /><path
           style="fill:#00a3e0;stroke-width:0.264583;fill-opacity:1"
           d="m 150.70105,142.3957 v 0.39953 l 1.5618,0.0484 -0.35716,-0.49638 z"
           id="path1025" /></g></g></g></svg>
