<svg width="257" height="73" viewBox="0 0 257 73" fill="none" xmlns="http://www.w3.org/2000/svg">
<mask id="mask0_102_936" style="mask-type:luminance" maskUnits="userSpaceOnUse" x="0" y="0" width="257" height="41">
<path d="M0 0.102404H256.431V41H0V0.102404Z" fill="white"/>
</mask>
<g mask="url(#mask0_102_936)">
<path d="M237.862 12.1729C237.315 12.1197 236.762 12.0725 236.194 12.0715L221.127 12.1487C220.841 12.1499 220.524 12.3811 220.416 12.6663L217.397 20.6574C217.289 20.9466 217.432 21.1836 217.721 21.1836C220.373 21.1824 232.039 21.1779 232.039 21.1779C232.864 21.1755 233.71 21.1249 234.561 21.048C236.298 20.8906 237.658 19.9328 238.408 18.2634C238.904 17.1612 239.327 16.0417 239.652 14.9402C240.141 13.2851 239.473 12.3294 237.862 12.1729Z" fill="#212121"/>
<path d="M244.245 20.2897C242.231 24.4659 238.762 26.6746 234.359 26.8187L215.585 26.9355C215.283 26.9372 214.948 27.1793 214.835 27.4814C214.429 28.5634 212.612 33.4244 211.917 35.2825C211.754 35.7204 211.339 36.0079 210.871 36.0077L206.334 36.0079C205.68 36.0103 205.021 35.8901 205.205 35.198C205.287 34.8879 205.4 34.574 205.517 34.2618L214.526 10.1267C214.635 9.83561 214.851 9.55473 215.129 9.34175L218.99 6.39232C219.294 6.16011 219.647 6.02809 219.965 6.02809H240.139C247.279 6.02809 248.063 10.1338 247.026 12.8969C245.99 15.6601 244.245 20.2897 244.245 20.2897ZM203.707 25.7987C203.221 27.0632 202.53 28.3525 201.761 29.5827C199.498 33.2019 196.266 35.0966 192.474 35.6983C191.047 35.9248 189.631 36.034 188.265 36.0457C183.54 36.0863 178.806 36.1418 174.146 36.0179C172.398 35.9713 170.69 35.6615 169.229 35.0997C166.202 33.9372 165.676 31.1421 166.768 27.7086C167.804 24.4484 172.219 12.6098 173.162 10.0837C173.277 9.77744 173.508 9.48634 173.806 9.27051L177.839 6.35267C178.134 6.13897 178.47 6.01931 178.773 6.01931L180.126 6.01978C181.115 6.02738 181.269 6.28904 180.889 7.30289L174.492 24.3831C174.219 25.1182 174.001 25.8656 173.876 26.585C173.541 28.5206 174.319 29.6662 176.311 29.7171C181.056 29.8386 185.847 29.845 190.627 29.8771C191.162 29.8806 191.742 29.7921 192.311 29.6774C194.095 29.3186 195.86 27.9498 196.697 26.2749C197.145 25.3798 197.546 24.4726 197.887 23.5703L203.951 7.42944C204.419 6.18338 204.647 6.02073 205.923 6.01765C207.238 6.01456 208.552 6.01028 209.862 6.01954C210.871 6.02643 211.056 6.29283 210.691 7.2668L203.707 25.7987ZM156.414 36.0613C155.102 36.0628 153.8 36.0336 152.474 36.0718C151.64 36.0958 151.488 35.6848 151.741 34.9444C151.829 34.6885 159.902 13.1801 159.902 13.1801C160.352 11.9818 160.272 11.8576 159.087 11.8512C158.461 11.8476 157.838 11.8343 157.204 11.8526C156.48 11.8735 156.253 11.4993 156.485 10.8343L156.749 10.1267C156.863 9.82232 157.093 9.53027 157.388 9.31468L161.443 6.35836C161.727 6.15108 162.048 6.03071 162.344 6.02145C162.842 6.00578 165.968 6.05706 167.745 6.08793C168.348 6.09861 168.756 6.70194 168.545 7.26703L158.329 34.6923C157.885 35.8728 157.618 36.0599 156.414 36.0613ZM253.83 1.51207H156.628C156.224 1.51207 155.774 1.83949 155.622 2.24384C155.622 2.24384 142.532 37.3197 142.192 38.2552C141.851 39.1907 142.111 39.5908 143.164 39.5908H240.364C240.768 39.5908 241.219 39.2632 241.37 38.859C241.37 38.859 254.568 3.70217 254.856 2.91507C255.143 2.12797 254.694 1.51207 253.83 1.51207Z" fill="#212121"/>
<path d="M76.6292 10.5558C75.9172 10.5473 75.5788 10.7885 75.3181 11.488L68.4757 29.7306C68.2316 30.3774 68.3729 30.6543 69.0325 30.6483C74.8915 30.5963 80.7257 30.6132 86.6094 30.4909C89.5759 30.4294 92.2547 28.5886 93.5506 25.6783C94.9113 22.6223 96.0897 19.5437 97.1532 16.4805C97.558 15.3147 97.6466 14.0642 97.4823 13.0277C97.181 11.1252 95.4201 10.6605 93.4582 10.6078C90.7277 10.5347 79.4723 10.59 76.6292 10.5558ZM69.5947 7.46938L74.3059 4.03843C74.6369 3.79743 75.0114 3.66114 75.3523 3.65972C77.8744 3.64856 88.8069 3.60772 95.3214 3.71029C97.5226 3.74496 99.6736 4.06835 101.578 4.66906C105.656 5.95549 106.831 9.31093 105.452 13.8611C104.125 18.2449 102.402 22.6814 100.496 27.0723C98.3029 32.1223 92.9475 36.2518 87.6655 36.9924C85.7261 37.2642 83.7972 37.4131 81.9338 37.424C74.7621 37.4665 67.6152 37.4418 60.4592 37.4418C58.1936 37.4418 58.057 37.2153 58.9277 34.8942L68.8763 8.38042C69.0045 8.03875 69.2628 7.71108 69.5947 7.46938Z" fill="#212121"/>
<path d="M113.346 23.511C112.173 26.6352 110.172 30.6801 114.952 30.6801H137.43C138.974 30.6801 139.061 31.0223 138.477 32.6003C138.026 33.8162 137.622 34.8564 137.166 36.0721C136.808 37.0263 136.303 37.4392 135.274 37.4392H114.091C107.069 37.4392 101.522 35.757 104.165 28.7127C105.88 24.1165 108.488 17.1418 110.196 12.6379C112.79 5.72397 120.606 3.66303 126.763 3.66303H144.583C144.926 3.66279 145.204 3.79884 145.355 4.0415L147.517 7.51043C147.67 7.75594 147.681 8.0874 147.548 8.43406C147.491 8.58174 147.325 9.0058 147.325 9.0058L147.047 9.70007C146.835 10.231 146.321 10.5793 145.75 10.5793H122.494C117.552 10.5793 116.581 14.8866 115.614 17.4659H142.088C143.688 17.4661 143.796 17.6402 143.207 19.2174C142.86 20.1453 142.515 21.0735 142.161 22.0014C141.674 23.2788 141.362 23.5105 140.076 23.511H113.346Z" fill="#212121"/>
<path d="M52.946 35.609C52.324 37.2646 52.0792 37.4413 50.4682 37.4415C48.96 37.442 47.4608 37.4175 45.9412 37.4505C45.0743 37.4693 44.8452 37.0666 45.1135 36.2572C45.1983 36.0015 45.2937 35.7453 45.3899 35.4896L56.9485 4.53127C57.1437 4.00867 57.6418 3.66202 58.1998 3.66202C59.0246 3.66202 60.1218 3.66178 60.2562 3.66178C60.5991 3.66178 60.8766 3.79854 61.0274 4.04144L63.1382 7.44199C63.2883 7.6837 63.3006 8.01113 63.1726 8.35209L52.946 35.609Z" fill="#212121"/>
<path d="M49.8284 7.42191L47.6998 4.00734C47.5485 3.76445 47.271 3.62816 46.9281 3.62792L14.8166 3.61581C14.3104 3.61557 13.855 3.92353 13.6667 4.39365L11.5454 9.6906C11.4231 10.0145 11.6596 10.3604 12.0058 10.3599L37.4805 10.3889C40.3896 10.4176 41.0912 11.6309 40.1075 14.5139C39.7801 15.4743 39.4978 16.42 39.0704 17.3781C38.128 19.4917 36.4895 20.6758 34.3324 20.7017H7.86992C7.63604 20.7019 7.42947 20.9059 7.34732 21.125L1.53181 36.5968C1.37201 37.0218 1.6878 37.4751 2.14178 37.4722L8.1451 37.4359C8.63375 37.4324 9.06825 37.1239 9.2328 36.6638L12.5716 27.3337C12.6497 27.1255 12.8466 26.9868 13.069 26.9847L27.5954 26.9263C27.9487 26.9291 28.2704 27.267 28.3939 27.5762L31.8647 36.5401C32.1066 37.1857 32.5072 37.5152 33.3605 37.4896C34.7163 37.4492 38.2002 37.4492 40.052 37.4525C40.618 37.4535 40.9958 36.8727 40.769 36.3539L36.2095 25.9191C36.1419 25.7643 36.2506 25.59 36.4192 25.5824L38.9051 25.4706C39.2019 25.457 39.5222 25.3457 39.8143 25.1541L44.2114 22.2673C44.586 22.0214 44.8816 21.665 45.0217 21.2903L49.8642 8.33366C49.9922 7.99175 49.9794 7.66385 49.8284 7.42191Z" fill="#212121"/>
</g>
<path d="M2.8 54.26L3.1 52.7H13.96L13.66 54.26H9.1L6.64 67H4.88L7.34 54.26H2.8ZM16.9634 52.7L15.8834 58.28H15.9234C16.3634 57.7067 16.9168 57.2533 17.5834 56.92C18.2634 56.5867 18.9834 56.42 19.7434 56.42C20.7568 56.42 21.4768 56.7133 21.9034 57.3C22.3301 57.8733 22.4501 58.6733 22.2634 59.7L20.8434 67H19.2634L20.6834 59.7C20.8034 59.0467 20.7568 58.56 20.5434 58.24C20.3434 57.92 19.9368 57.76 19.3234 57.76C18.3901 57.76 17.5368 58.1 16.7634 58.78C15.9901 59.46 15.5101 60.2667 15.3234 61.2L14.2034 67H12.6034L15.3634 52.7H16.9634ZM32.6359 62.22H24.9359C24.9226 62.3533 24.9159 62.5467 24.9159 62.8C24.9159 63.7467 25.1626 64.5067 25.6559 65.08C26.1493 65.6533 26.8559 65.94 27.7759 65.94C28.4559 65.94 29.0559 65.7533 29.5759 65.38C30.0959 65.0067 30.4693 64.48 30.6959 63.8H32.2559C31.8559 64.9467 31.2559 65.8133 30.4559 66.4C29.6559 66.9867 28.7093 67.28 27.6159 67.28C26.3759 67.28 25.3426 66.8733 24.5159 66.06C23.7026 65.2467 23.2959 64.1533 23.2959 62.78C23.2959 61.02 23.8159 59.52 24.8559 58.28C25.8959 57.0267 27.1693 56.4 28.6759 56.4C29.7293 56.4 30.5959 56.6533 31.2759 57.16C32.5559 58.12 33.0093 59.8067 32.6359 62.22ZM28.6159 57.66C27.7359 57.66 26.9893 57.9667 26.3759 58.58C25.7626 59.18 25.3359 59.9867 25.0959 61H31.1159C31.2226 60 31.0626 59.1933 30.6359 58.58C30.2093 57.9667 29.5359 57.66 28.6159 57.66ZM36.6325 67L39.3925 52.7H44.4125C45.5458 52.7 46.4992 52.9867 47.2725 53.56C48.0458 54.1333 48.4325 54.9733 48.4325 56.08C48.4325 56.9333 48.1925 57.66 47.7125 58.26C47.2458 58.86 46.5992 59.2733 45.7725 59.5V59.56C47.2925 60 48.0525 60.9733 48.0525 62.48C48.0525 63.88 47.5458 65 46.5325 65.84C45.6125 66.6133 44.3792 67 42.8325 67H36.6325ZM38.6925 65.4H42.7925C44.0058 65.4 44.8925 65.14 45.4525 64.62C45.9992 64.1133 46.2725 63.4067 46.2725 62.5C46.2725 61.0467 45.3792 60.32 43.5925 60.32H39.6725L38.6925 65.4ZM39.9725 58.82H43.5525C45.6192 58.82 46.6525 57.9467 46.6525 56.2C46.6525 55.5733 46.4525 55.0933 46.0525 54.76C45.6525 54.4133 45.0658 54.24 44.2925 54.24H40.8525L39.9725 58.82ZM58.5539 62.22H50.8539C50.8406 62.3533 50.8339 62.5467 50.8339 62.8C50.8339 63.7467 51.0806 64.5067 51.5739 65.08C52.0672 65.6533 52.7739 65.94 53.6939 65.94C54.3739 65.94 54.9739 65.7533 55.4939 65.38C56.0139 65.0067 56.3872 64.48 56.6139 63.8H58.1739C57.7739 64.9467 57.1739 65.8133 56.3739 66.4C55.5739 66.9867 54.6272 67.28 53.5339 67.28C52.2939 67.28 51.2606 66.8733 50.4339 66.06C49.6206 65.2467 49.2139 64.1533 49.2139 62.78C49.2139 61.02 49.7339 59.52 50.7739 58.28C51.8139 57.0267 53.0872 56.4 54.5939 56.4C55.6472 56.4 56.5139 56.6533 57.1939 57.16C58.4739 58.12 58.9272 59.8067 58.5539 62.22ZM54.5339 57.66C53.6539 57.66 52.9072 57.9667 52.2939 58.58C51.6806 59.18 51.2539 59.9867 51.0139 61H57.0339C57.1406 60 56.9806 59.1933 56.5539 58.58C56.1272 57.9667 55.4539 57.66 54.5339 57.66ZM63.3069 67.3C62.0935 67.3 61.0735 66.9867 60.2469 66.36C59.4202 65.7333 59.0069 64.8267 59.0069 63.64H60.5469C60.5602 64.4 60.8135 64.98 61.3069 65.38C61.8135 65.78 62.5202 65.98 63.4269 65.98C64.0802 65.98 64.6335 65.84 65.0869 65.56C65.5402 65.2667 65.7669 64.7867 65.7669 64.12C65.7669 63.7333 65.5935 63.42 65.2469 63.18C64.9135 62.94 64.2935 62.64 63.3869 62.28C62.8535 62.08 62.4402 61.9133 62.1469 61.78C61.8669 61.6333 61.5602 61.44 61.2269 61.2C60.8935 60.96 60.6535 60.68 60.5069 60.36C60.3602 60.04 60.2869 59.6667 60.2869 59.24C60.2869 58.36 60.6135 57.6733 61.2669 57.18C61.9335 56.6867 62.8002 56.44 63.8669 56.44C64.9869 56.44 65.9069 56.7067 66.6269 57.24C67.3602 57.7733 67.7602 58.5867 67.8269 59.68H66.2669C66.1202 58.3467 65.3202 57.68 63.8669 57.68C62.4802 57.68 61.7869 58.1733 61.7869 59.16C61.7869 59.5467 61.9469 59.8533 62.2669 60.08C62.6002 60.3067 63.2335 60.6067 64.1669 60.98C64.7269 61.1933 65.1535 61.38 65.4469 61.54C65.7535 61.6867 66.0735 61.88 66.4069 62.12C66.7402 62.36 66.9735 62.64 67.1069 62.96C67.2535 63.28 67.3269 63.6533 67.3269 64.08C67.3269 65.1333 66.9402 65.9333 66.1669 66.48C65.4069 67.0267 64.4535 67.3 63.3069 67.3ZM68.8988 57.96L69.1588 56.66H70.6188L71.2588 53.4H72.8587L72.2188 56.66H74.1988L73.9388 57.96H71.9588L70.6988 64.52C70.5388 65.2933 70.8388 65.68 71.5988 65.68C71.9454 65.68 72.2521 65.62 72.5188 65.5H72.5788L72.2988 66.9C72.0054 67.0067 71.6321 67.06 71.1788 67.06C70.3654 67.06 69.7721 66.84 69.3988 66.4C69.0254 65.9467 68.9254 65.3 69.0988 64.46L70.3587 57.96H68.8988ZM81.0398 67L78.6398 52.7H80.4598L82.0798 63.34L82.2998 65.26H82.3398C82.7265 64.4067 83.0332 63.7667 83.2598 63.34L88.5398 52.7H90.4198L82.9798 67H81.0398ZM96.0903 67.1C95.157 67.1 94.677 66.6267 94.6503 65.68H94.6303C93.8436 66.6933 92.757 67.2 91.3703 67.2C90.3836 67.2 89.597 66.92 89.0103 66.36C88.437 65.7867 88.1503 65.0933 88.1503 64.28C88.1503 63.6533 88.257 63.12 88.4703 62.68C88.697 62.24 89.017 61.9067 89.4303 61.68C89.8436 61.4533 90.2636 61.2933 90.6903 61.2C91.1303 61.0933 91.6436 61.02 92.2303 60.98C93.697 60.9 94.6503 60.7667 95.0903 60.58C95.5303 60.38 95.7503 59.9533 95.7503 59.3C95.7503 58.26 95.0436 57.7267 93.6303 57.7C91.937 57.6733 90.9636 58.3667 90.7103 59.78H89.0903C89.277 58.7267 89.7703 57.9067 90.5703 57.32C91.3703 56.7333 92.4303 56.44 93.7503 56.44C94.8836 56.44 95.7836 56.7267 96.4503 57.3C97.1303 57.8733 97.357 58.76 97.1303 59.96L96.1903 64.74C96.1103 65.1667 96.1303 65.4733 96.2503 65.66C96.3703 65.8333 96.6503 65.88 97.0903 65.8H97.1503L96.9103 66.96C96.6036 67.0533 96.3303 67.1 96.0903 67.1ZM89.7703 64.16C89.7703 64.7067 89.937 65.1467 90.2703 65.48C90.617 65.8 91.097 65.96 91.7103 65.96C92.6436 65.96 93.397 65.6867 93.9703 65.14C94.5436 64.58 94.9103 63.8867 95.0703 63.06L95.3503 61.64C95.1503 61.76 94.8903 61.8533 94.5703 61.92C94.2503 61.9867 93.9503 62.04 93.6703 62.08C93.3903 62.1067 92.8903 62.1467 92.1703 62.2C91.9303 62.2133 91.737 62.2333 91.5903 62.26C91.457 62.2733 91.257 62.32 90.9903 62.4C90.737 62.48 90.5303 62.5867 90.3703 62.72C90.2236 62.84 90.0836 63.0267 89.9503 63.28C89.8303 63.5333 89.7703 63.8267 89.7703 64.16ZM98.1517 67L100.912 52.7H102.512L99.7517 67H98.1517ZM108.298 67L108.558 65.56H108.518C107.572 66.68 106.412 67.24 105.038 67.24C104.025 67.24 103.292 66.94 102.838 66.34C102.385 65.74 102.258 64.9133 102.458 63.86L103.858 56.66H105.438L104.038 63.84C103.892 64.56 103.925 65.0867 104.138 65.42C104.365 65.74 104.792 65.9 105.418 65.9C106.325 65.9 107.125 65.5667 107.818 64.9C108.525 64.2333 108.978 63.4133 109.178 62.44L110.298 56.66H111.898L109.898 67H108.298ZM121.777 62.22H114.077C114.063 62.3533 114.057 62.5467 114.057 62.8C114.057 63.7467 114.303 64.5067 114.797 65.08C115.29 65.6533 115.997 65.94 116.917 65.94C117.597 65.94 118.197 65.7533 118.717 65.38C119.237 65.0067 119.61 64.48 119.837 63.8H121.397C120.997 64.9467 120.397 65.8133 119.597 66.4C118.797 66.9867 117.85 67.28 116.757 67.28C115.517 67.28 114.483 66.8733 113.657 66.06C112.843 65.2467 112.437 64.1533 112.437 62.78C112.437 61.02 112.957 59.52 113.997 58.28C115.037 57.0267 116.31 56.4 117.817 56.4C118.87 56.4 119.737 56.6533 120.417 57.16C121.697 58.12 122.15 59.8067 121.777 62.22ZM117.757 57.66C116.877 57.66 116.13 57.9667 115.517 58.58C114.903 59.18 114.477 59.9867 114.237 61H120.257C120.363 60 120.203 59.1933 119.777 58.58C119.35 57.9667 118.677 57.66 117.757 57.66ZM125.773 67L128.533 52.7H137.873L137.573 54.26H129.993L129.113 58.8H136.073L135.773 60.3H128.813L127.853 65.36H135.873L135.553 67H125.773ZM137.429 67L140.189 52.7H141.789L139.029 67H137.429ZM150.976 62.22H143.276C143.262 62.3533 143.256 62.5467 143.256 62.8C143.256 63.7467 143.502 64.5067 143.996 65.08C144.489 65.6533 145.196 65.94 146.116 65.94C146.796 65.94 147.396 65.7533 147.916 65.38C148.436 65.0067 148.809 64.48 149.036 63.8H150.596C150.196 64.9467 149.596 65.8133 148.796 66.4C147.996 66.9867 147.049 67.28 145.956 67.28C144.716 67.28 143.682 66.8733 142.856 66.06C142.042 65.2467 141.636 64.1533 141.636 62.78C141.636 61.02 142.156 59.52 143.196 58.28C144.236 57.0267 145.509 56.4 147.016 56.4C148.069 56.4 148.936 56.6533 149.616 57.16C150.896 58.12 151.349 59.8067 150.976 62.22ZM146.956 57.66C146.076 57.66 145.329 57.9667 144.716 58.58C144.102 59.18 143.676 59.9867 143.436 61H149.456C149.562 60 149.402 59.1933 148.976 58.58C148.549 57.9667 147.876 57.66 146.956 57.66ZM156.249 67.28C154.929 67.28 153.875 66.9 153.089 66.14C152.315 65.3667 151.929 64.2667 151.929 62.84C151.929 61.1467 152.442 59.6533 153.469 58.36C154.509 57.0533 155.835 56.4 157.449 56.4C158.609 56.4 159.515 56.7133 160.169 57.34C160.822 57.9533 161.202 58.84 161.309 60H159.689C159.529 58.48 158.755 57.72 157.369 57.72C156.182 57.72 155.249 58.24 154.569 59.28C153.889 60.32 153.549 61.52 153.549 62.88C153.549 63.8 153.769 64.54 154.209 65.1C154.649 65.66 155.335 65.94 156.269 65.94C157.002 65.94 157.635 65.7133 158.169 65.26C158.702 64.8067 159.075 64.1733 159.289 63.36H160.829C160.549 64.6 159.995 65.5667 159.169 66.26C158.342 66.94 157.369 67.28 156.249 67.28ZM162.317 57.96L162.577 56.66H164.037L164.677 53.4H166.277L165.637 56.66H167.617L167.357 57.96H165.377L164.117 64.52C163.957 65.2933 164.257 65.68 165.017 65.68C165.363 65.68 165.67 65.62 165.937 65.5H165.997L165.717 66.9C165.423 67.0067 165.05 67.06 164.597 67.06C163.783 67.06 163.19 66.84 162.817 66.4C162.443 65.9467 162.343 65.3 162.517 64.46L163.777 57.96H162.317ZM170.852 56.66L170.532 58.3H170.572C171.425 57.1267 172.412 56.54 173.532 56.54C173.905 56.54 174.185 56.58 174.372 56.66L174.072 58.2H174.012C173.825 58.1333 173.579 58.1 173.272 58.1C172.472 58.1 171.759 58.4067 171.132 59.02C170.505 59.6333 170.092 60.4733 169.892 61.54L168.852 67H167.252L169.252 56.66H170.852ZM173.814 67L175.814 56.66H177.414L175.414 67H173.814ZM176.194 54.7L176.574 52.7H178.174L177.794 54.7H176.194ZM182.284 67.28C180.964 67.28 179.911 66.9 179.124 66.14C178.351 65.3667 177.964 64.2667 177.964 62.84C177.964 61.1467 178.477 59.6533 179.504 58.36C180.544 57.0533 181.871 56.4 183.484 56.4C184.644 56.4 185.551 56.7133 186.204 57.34C186.857 57.9533 187.237 58.84 187.344 60H185.724C185.564 58.48 184.791 57.72 183.404 57.72C182.217 57.72 181.284 58.24 180.604 59.28C179.924 60.32 179.584 61.52 179.584 62.88C179.584 63.8 179.804 64.54 180.244 65.1C180.684 65.66 181.371 65.94 182.304 65.94C183.037 65.94 183.671 65.7133 184.204 65.26C184.737 64.8067 185.111 64.1733 185.324 63.36H186.864C186.584 64.6 186.031 65.5667 185.204 66.26C184.377 66.94 183.404 67.28 182.284 67.28ZM191.066 67L193.826 52.7H198.846C199.979 52.7 200.933 52.9867 201.706 53.56C202.479 54.1333 202.866 54.9733 202.866 56.08C202.866 56.9333 202.626 57.66 202.146 58.26C201.679 58.86 201.033 59.2733 200.206 59.5V59.56C201.726 60 202.486 60.9733 202.486 62.48C202.486 63.88 201.979 65 200.966 65.84C200.046 66.6133 198.813 67 197.266 67H191.066ZM193.126 65.4H197.226C198.439 65.4 199.326 65.14 199.886 64.62C200.433 64.1133 200.706 63.4067 200.706 62.5C200.706 61.0467 199.813 60.32 198.026 60.32H194.106L193.126 65.4ZM194.406 58.82H197.986C200.053 58.82 201.086 57.9467 201.086 56.2C201.086 55.5733 200.886 55.0933 200.486 54.76C200.086 54.4133 199.499 54.24 198.726 54.24H195.286L194.406 58.82ZM203.268 67L205.268 56.66H206.868L204.868 67H203.268ZM205.648 54.7L206.028 52.7H207.628L207.248 54.7H205.648ZM216.737 56.66L212.437 60.48L215.257 67H213.537L211.217 61.54L209.377 63.18L208.637 67H207.037L209.797 52.7H211.397L209.737 61.28L214.637 56.66H216.737ZM225.468 62.22H217.768C217.755 62.3533 217.748 62.5467 217.748 62.8C217.748 63.7467 217.995 64.5067 218.488 65.08C218.981 65.6533 219.688 65.94 220.608 65.94C221.288 65.94 221.888 65.7533 222.408 65.38C222.928 65.0067 223.301 64.48 223.528 63.8H225.088C224.688 64.9467 224.088 65.8133 223.288 66.4C222.488 66.9867 221.541 67.28 220.448 67.28C219.208 67.28 218.175 66.8733 217.348 66.06C216.535 65.2467 216.128 64.1533 216.128 62.78C216.128 61.02 216.648 59.52 217.688 58.28C218.728 57.0267 220.001 56.4 221.508 56.4C222.561 56.4 223.428 56.6533 224.108 57.16C225.388 58.12 225.841 59.8067 225.468 62.22ZM221.448 57.66C220.568 57.66 219.821 57.9667 219.208 58.58C218.595 59.18 218.168 59.9867 217.928 61H223.948C224.055 60 223.895 59.1933 223.468 58.58C223.041 57.9667 222.368 57.66 221.448 57.66ZM230.221 67.3C229.008 67.3 227.988 66.9867 227.161 66.36C226.334 65.7333 225.921 64.8267 225.921 63.64H227.461C227.474 64.4 227.728 64.98 228.221 65.38C228.728 65.78 229.434 65.98 230.341 65.98C230.994 65.98 231.548 65.84 232.001 65.56C232.454 65.2667 232.681 64.7867 232.681 64.12C232.681 63.7333 232.508 63.42 232.161 63.18C231.828 62.94 231.208 62.64 230.301 62.28C229.768 62.08 229.354 61.9133 229.061 61.78C228.781 61.6333 228.474 61.44 228.141 61.2C227.808 60.96 227.568 60.68 227.421 60.36C227.274 60.04 227.201 59.6667 227.201 59.24C227.201 58.36 227.528 57.6733 228.181 57.18C228.848 56.6867 229.714 56.44 230.781 56.44C231.901 56.44 232.821 56.7067 233.541 57.24C234.274 57.7733 234.674 58.5867 234.741 59.68H233.181C233.034 58.3467 232.234 57.68 230.781 57.68C229.394 57.68 228.701 58.1733 228.701 59.16C228.701 59.5467 228.861 59.8533 229.181 60.08C229.514 60.3067 230.148 60.6067 231.081 60.98C231.641 61.1933 232.068 61.38 232.361 61.54C232.668 61.6867 232.988 61.88 233.321 62.12C233.654 62.36 233.888 62.64 234.021 62.96C234.168 63.28 234.241 63.6533 234.241 64.08C234.241 65.1333 233.854 65.9333 233.081 66.48C232.321 67.0267 231.368 67.3 230.221 67.3Z" fill="#BABABA"/>
</svg>
