<?xml version="1.0" encoding="utf-8"?>
<!-- Generator: Adobe Illustrator 25.3.1, SVG Export Plug-In . SVG Version: 6.00 Build 0)  -->
<svg version="1.1" id="图层_1" xmlns="http://www.w3.org/2000/svg" xmlns:xlink="http://www.w3.org/1999/xlink" x="0px" y="0px"
	 viewBox="0 0 1920 1080" style="enable-background:new 0 0 1920 1080;" xml:space="preserve">
<style type="text/css">
	.st0{fill:#2A2D34;}
</style>
<g>
	<g>
		<path class="st0" d="M957.57,463.99c-13.26-7.39-28.26-11.08-45.01-11.08c-16.75,0-31.76,3.7-45.01,11.08
			c-13.26,7.39-23.63,17.71-31.11,30.96c-7.48,13.25-11.22,28.31-11.22,45.17c0,16.86,3.74,31.92,11.22,45.17
			c7.48,13.25,17.85,23.53,31.11,30.84c13.25,7.31,28.26,10.96,45.01,10.96c16.75,0,31.75-3.65,45.01-10.96
			c13.25-7.31,23.62-17.59,31.11-30.84c7.48-13.25,11.22-28.31,11.22-45.17c0-16.87-3.74-31.92-11.22-45.17
			C981.19,481.7,970.82,471.38,957.57,463.99z M956.71,573.85c-3.9,9.64-9.64,17.07-17.2,22.29c-7.56,5.22-16.55,7.83-26.96,7.83
			c-10.41,0-19.39-2.61-26.96-7.83c-7.56-5.22-13.3-12.65-17.2-22.29c-3.9-9.64-5.86-20.88-5.86-33.73
			c0-13.01,1.99-24.33,5.98-33.97c3.98-9.64,9.72-17.11,17.2-22.41c7.48-5.3,16.43-7.95,26.84-7.95c10.41,0,19.35,2.65,26.84,7.95
			c7.48,5.3,13.21,12.77,17.2,22.41c3.98,9.64,5.98,20.96,5.98,33.97C962.57,552.97,960.62,564.21,956.71,573.85z"/>
	</g>
	<g>
		<path class="st0" d="M539.45,456.24v167.54l123.59-0.03v-29.74c-23.29,4.91-47.44,7.51-72.19,7.51c-3.33,0-6.65-0.06-9.96-0.15
			v-50.14h68.32v-23.22H580.9v-49.43c3.31-0.09,6.63-0.15,9.96-0.15c24.75,0,48.9,2.6,72.19,7.51v-29.71H539.45z"/>
	</g>
	<g>
		<path class="st0" d="M740.54,601.3V456.24h-41.44v167.51l120.19-0.03v-29.84c-23.29,4.91-47.44,7.51-72.19,7.51
			C744.9,601.4,742.72,601.34,740.54,601.3z"/>
	</g>
	<g>
		<path class="st0" d="M1282.96,541c9.75-3.86,17.32-9.23,22.68-16.14c5.37-6.9,8.06-14.94,8.06-24.09c0-9.16-2.61-17.11-7.81-23.85
			c-5.21-6.75-12.57-11.96-22.08-15.66c-9.52-3.69-20.62-5.54-33.3-5.54h-25.48v-0.09h-41.35v167.92h41.35v-75.56h15.72l56.28,75.77
			h39.77l-59.84-80.71C1279.01,542.43,1281.02,541.77,1282.96,541z M1264.87,519.92c-5.78,4.58-13.7,6.87-23.79,6.87h-16.05v-49.87
			h16.54c9.92,0,17.73,2.05,23.42,6.14c5.69,4.09,8.54,10.08,8.54,17.95C1273.53,509.04,1270.64,515.35,1264.87,519.92z"/>
	</g>
	<g>
		<rect x="1362.09" y="456.24" class="st0" width="40.21" height="167.51"/>
	</g>
	<g>
		<path class="st0" d="M1155.75,455.69h-144.38v29.84c16.94-3.57,34.34-5.89,52.09-6.91v145.24h40.21V478.61
			c17.75,1.01,35.15,3.34,52.09,6.91V455.69z"/>
	</g>
	<g>
		<path class="st0" d="M512.57,456.31h-36.82l-45.24,144.06h0l-45.24-144.06h-36.82c1.34,6.37,7.93,97.86,82.05,168.88h0
			C504.57,552.24,511.23,462.68,512.57,456.31z"/>
	</g>
	<g>
		<path class="st0" d="M1571.54,587.13c-5.95,3.54-11.99,6.34-18.14,8.36c-7.7,2.54-15.8,3.8-24.3,3.8
			c-11.87,0-22.5-2.49-31.88-7.49c-9.39-4.99-16.73-12.16-22.02-21.51c-5.29-9.35-7.94-20.44-7.94-33.27
			c0-11.88,2.41-22.42,7.22-31.6c4.81-9.19,11.63-16.36,20.45-21.51c8.82-5.15,18.93-7.72,30.32-7.72c8.82,0,17.09,2.02,24.79,6.06
			c7.7,4.04,14.44,9.86,20.21,17.47l1.3,1.61v-35.2c-7.18-3.92-15.03-6.91-23.56-8.95c-8.58-2.06-17.29-3.09-26.11-3.09
			c-16.21,0-31.28,3.49-45.24,10.46c-13.95,6.97-25.15,17.03-33.57,30.18c-8.42,13.15-12.63,28.44-12.63,45.86
			c0,17.27,4.01,32.36,12.03,45.27c8.02,12.91,18.97,22.81,32.85,29.7c13.87,6.89,29.32,10.34,46.32,10.34
			c11.39,0,21.94-1.94,31.64-5.82c6.35-2.54,12.43-5.99,18.26-10.33V587.13z"/>
	</g>
</g>
</svg>
